<?xml version="1.0" encoding="UTF-8" standalone="no"?>
<!-- Generator: Adobe Illustrator 19.0.0, SVG Export Plug-In . SVG Version: 6.00 Build 0)  -->

<svg
   xmlns:osb="http://www.openswatchbook.org/uri/2009/osb"
   xmlns:dc="http://purl.org/dc/elements/1.1/"
   xmlns:cc="http://creativecommons.org/ns#"
   xmlns:rdf="http://www.w3.org/1999/02/22-rdf-syntax-ns#"
   xmlns:svg="http://www.w3.org/2000/svg"
   xmlns="http://www.w3.org/2000/svg"
   xmlns:sodipodi="http://sodipodi.sourceforge.net/DTD/sodipodi-0.dtd"
   xmlns:inkscape="http://www.inkscape.org/namespaces/inkscape"
   version="1.1"
   id="Layer_1"
   x="0px"
   y="0px"
   viewBox="0 0 490.038 490.038"
   style="enable-background:new 0 0 490.038 490.038;"
   xml:space="preserve"
   width="512"
   height="512"
   sodipodi:docname="gayelak-svg.svg"
   inkscape:version="0.92.2 5c3e80d, 2017-08-06"
   inkscape:export-filename="/Users/radibarq/Desktop/Gayelak/twitter-logo/twitter.png"
   inkscape:export-xdpi="75.690071"
   inkscape:export-ydpi="75.690071"><metadata
     id="metadata37"><rdf:RDF><cc:Work
         rdf:about=""><dc:format>image/svg+xml</dc:format><dc:type
           rdf:resource="http://purl.org/dc/dcmitype/StillImage" /><dc:title></dc:title></cc:Work></rdf:RDF></metadata><defs
     id="defs35"><linearGradient
       id="linearGradient2269"
       osb:paint="solid"><stop
         style="stop-color:#307dfb;stop-opacity:1;"
         offset="0"
         id="stop2267" /></linearGradient><linearGradient
       id="linearGradient829"
       osb:paint="solid"><stop
         style="stop-color:#307dfb;stop-opacity:1;"
         offset="0"
         id="stop827" /></linearGradient></defs><sodipodi:namedview
     pagecolor="#ffffff"
     bordercolor="#666666"
     borderopacity="1"
     objecttolerance="10"
     gridtolerance="10"
     guidetolerance="10"
     inkscape:pageopacity="1"
     inkscape:pageshadow="2"
     inkscape:window-width="1280"
     inkscape:window-height="716"
     id="namedview33"
     showgrid="false"
     inkscape:zoom="0.98242188"
     inkscape:cx="175.58648"
     inkscape:cy="174.56859"
     inkscape:window-x="212"
     inkscape:window-y="0"
     inkscape:window-maximized="0"
     inkscape:current-layer="Layer_1"
     inkscape:snap-global="false" /><g
     id="g30"
     transform="matrix(0.70031517,0,0,0.70031418,72.479219,75.641136)"><g
       id="g4"><path
         style="fill:#7a797e"
         d="m 246.698,396.148 c -1.946,0 -3.88,-0.754 -5.337,-2.228 L 79.897,230.545 c -2.912,-2.946 -2.884,-7.695 0.063,-10.606 2.946,-2.914 7.695,-2.885 10.606,0.062 L 213.903,344.798 126.79,187.11 c -2.003,-3.626 -0.688,-8.188 2.938,-10.191 3.626,-2.006 8.188,-0.687 10.191,2.938 L 253.26,385.022 c 1.811,3.278 0.926,7.391 -2.073,9.633 -1.339,1.001 -2.918,1.493 -4.489,1.493 z"
         id="path2"
         inkscape:connector-curvature="0" /></g><g
       id="g8"><path
         style="fill:#7a797e"
         d="m 246.693,396.148 c -1.571,0 -3.149,-0.491 -4.489,-1.494 -2.999,-2.242 -3.884,-6.354 -2.073,-9.633 L 353.473,179.856 c 2.003,-3.625 6.567,-4.941 10.191,-2.938 3.626,2.003 4.941,6.565 2.938,10.191 L 279.489,344.796 402.827,220 c 2.911,-2.946 7.659,-2.976 10.606,-0.062 2.946,2.911 2.974,7.66 0.063,10.606 L 252.03,393.921 c -1.456,1.473 -3.391,2.227 -5.337,2.227 z"
         id="path6"
         inkscape:connector-curvature="0" /></g><path
       style="fill:#307dfb;fill-opacity:0.98477155"
       d="m 245.019,144.807 c 73.481,0 137.923,38.665 174.111,96.757 7.611,12.218 26.477,8.301 28.613,-5.934 1.802,-12.006 2.562,-24.353 2.182,-36.947 C 446.614,88.871 356.035,0.609 246.174,0.003 132.424,-0.624 40.017,91.398 40.017,205.002 c 0,10.363 0.771,20.545 2.258,30.494 2.137,14.299 20.994,18.33 28.639,6.059 36.189,-58.087 100.628,-96.748 174.105,-96.748 z"
       id="path10"
       inkscape:connector-curvature="0" /><g
       id="g14"><path
         style="fill:none;fill-opacity:1;opacity:1"
         d="M 246.191,99.882 C 152.964,99.368 74.073,161.086 48.64,245.915 c 6.786,4.778 17.109,3.956 22.29,-4.359 36.189,-58.087 100.628,-96.748 174.105,-96.748 73.481,0 137.923,38.665 174.111,96.757 5.154,8.274 15.465,9.141 22.251,4.422 C 416.043,161.875 337.824,100.387 246.191,99.882 Z"
         id="path12"
         inkscape:connector-curvature="0" /></g><g
       id="g22"><path
         style="fill:#ffffff;fill-opacity:0.94117647"
         d="m 245.058,54.559 c 4.142,0 7.5,-3.357 7.5,-7.5 V 0.147 C 250.45,0.07 248.337,0.014 246.214,0.003 243.313,-0.013 240.43,0.047 237.558,0.15 v 46.909 c 0,4.143 3.358,7.5 7.5,7.5 z"
         id="path16"
         inkscape:connector-curvature="0" /><path
         style="fill:#ffffff;fill-opacity:0.94117647"
         d="m 144.14,82.319 c 0.889,0 1.793,-0.159 2.674,-0.495 3.87,-1.478 5.809,-5.813 4.332,-9.682 L 136.511,33.811 c -0.286,-0.749 -0.681,-1.423 -1.156,-2.016 -4.246,2.695 -8.387,5.539 -12.413,8.53 l 14.19,37.167 c 1.142,2.99 3.988,4.827 7.008,4.827 z"
         id="path18"
         inkscape:connector-curvature="0" /><path
         style="fill:#ffffff;fill-opacity:0.94117647"
         d="m 338.971,72.142 c -1.477,3.869 0.462,8.204 4.332,9.682 0.88,0.336 1.785,0.495 2.674,0.495 3.02,0 5.867,-1.837 7.008,-4.827 l 14.112,-36.959 c -4.041,-3.008 -8.192,-5.874 -12.451,-8.584 -0.422,0.556 -0.777,1.177 -1.039,1.863 z"
         id="path20"
         inkscape:connector-curvature="0" /></g><path
       style="fill:#7a797e"
       d="M 317.648,490.038 H 175.744 c -5.379,0 -9.781,-4.401 -9.781,-9.781 v -81.828 c 0,-5.379 4.401,-9.781 9.781,-9.781 h 141.904 c 5.379,0 9.781,4.401 9.781,9.781 v 81.828 c -10e-4,5.379 -4.402,9.781 -9.781,9.781 z"
       id="path24"
       inkscape:connector-curvature="0" /><g
       id="g28"><path
         style="fill:#403e43"
         d="m 165.964,439.256 v 41.001 c 0,5.379 4.401,9.781 9.781,9.781 h 141.904 c 5.379,0 9.781,-4.401 9.781,-9.781 v -41.001 z"
         id="path26"
         inkscape:connector-curvature="0" /></g></g><rect
     style="opacity:0;fill:#3b5998;fill-opacity:1;stroke-width:0.95710546"
     id="rect2004"
     width="488.1394"
     height="485.57028"
     x="0"
     y="4.4677348" /></svg>