<?xml version="1.0" encoding="UTF-8"?>
<svg width="74px" height="74px" viewBox="0 0 74 74" version="1.1" xmlns="http://www.w3.org/2000/svg" xmlns:xlink="http://www.w3.org/1999/xlink">
    <!-- Generator: Sketch 46.2 (44496) - http://www.bohemiancoding.com/sketch -->
    <title>Group</title>
    <desc>Created with Sketch.</desc>
    <defs></defs>
    <g id="Page-1" stroke="none" stroke-width="1" fill="none" fill-rule="evenodd">
        <g id="Group" transform="translate(0.000000, -0.362180)" fill-rule="nonzero" fill="#000000">
            <path d="M21,0.36217 C9.41795,0.36217 0,9.78017 0,21.36217 L0,53.3622 C0,64.9442 9.41795,74.3622 21,74.3622 L53,74.3622 C64.58205,74.3622 74,64.9442 74,53.3622 L74,21.36217 C74,9.78017 64.58205,0.36217 53,0.36217 L21,0.36217 Z M21,6.36217 L53,6.36217 C61.36183,6.36217 68,13.00037 68,21.36217 L68,53.3622 C68,61.724 61.36183,68.3622 53,68.3622 L21,68.3622 C12.63817,68.3622 6,61.724 6,53.3622 L6,21.36217 C6,13.00037 12.63817,6.36217 21,6.36217 Z M57,12.36217 C54.7908,12.36217 53,14.15297 53,16.36217 C53,18.57127 54.7908,20.36217 57,20.36217 C59.2091,20.36217 61,18.57127 61,16.36217 C61,14.15297 59.2091,12.36217 57,12.36217 Z M37,18.36217 C26.5421,18.36217 18,26.90437 18,37.3622 C18,47.82 26.5421,56.3622 37,56.3622 C47.45791,56.3622 56,47.82 56,37.3622 C56,26.90437 47.45791,18.36217 37,18.36217 Z M37,24.36217 C44.21525,24.36217 50,30.14707 50,37.3622 C50,44.5773 44.21525,50.3622 37,50.3622 C29.78478,50.3622 24,44.5773 24,37.3622 C24,30.14707 29.78478,24.36217 37,24.36217 Z" id="Shape"></path>
        </g>
    </g>
</svg>